<svg width="342" height="152" viewBox="0 0 342 152" fill="none" xmlns="http://www.w3.org/2000/svg">
<path d="M202.667 71.6666H139.333L142.04 61.1883C143.36 52.8266 150.568 46.6666 159.035 46.6666H182.963C191.43 46.6666 198.638 52.8266 199.958 61.1883L202.667 71.6666Z" fill="url(#paint0_linear_5432_45929)"/>
<path d="M165.84 53.9266L161 46.6666H181L176.16 53.9266C173.705 57.6083 168.295 57.6083 165.84 53.9266Z" fill="url(#paint1_linear_5432_45929)"/>
<path d="M171 50C162.442 50 155.233 43.605 154.213 35.1067L153.383 28.19C152.115 17.6284 160.362 8.33337 171 8.33337C181.638 8.33337 189.885 17.6284 188.617 28.1917L187.787 35.1084C186.767 43.605 179.558 50 171 50Z" fill="#D8E7FF"/>
<path d="M187.667 36.6667H154.333C152.493 36.6667 151 35.1733 151 33.3333C151 31.4933 152.493 30 154.333 30H187.667C189.507 30 191 31.4933 191 33.3333C191 35.1733 189.507 36.6667 187.667 36.6667Z" fill="#D8E7FF"/>
<path d="M153.383 28.19L153.61 30.0833C157.525 27.3783 160.095 22.8666 160.095 17.7483C160.095 16.0083 159.783 14.345 159.237 12.7916C155.055 16.5016 152.657 22.1383 153.383 28.19Z" fill="url(#paint2_linear_5432_45929)"/>
<path d="M182.763 12.7916C182.218 14.345 181.905 16.0083 181.905 17.7483C181.905 22.8683 184.475 27.3783 188.39 30.0833L188.616 28.1916C189.343 22.1383 186.945 16.5016 182.763 12.7916Z" fill="url(#paint3_linear_5432_45929)"/>
<path d="M187.651 20C185.186 13.2567 178.735 8.33337 171 8.33337C163.265 8.33337 156.813 13.2567 154.348 20H187.651Z" fill="url(#paint4_linear_5432_45929)"/>
<path d="M141.833 6.66663L139.958 12.2916L134.333 14.1666L139.958 16.0416L141.833 21.6666L143.708 16.0416L149.333 14.1666L143.708 12.2916L141.833 6.66663Z" fill="#F5BC00"/>
<path d="M200.167 36.6666L198.292 42.2916L192.667 44.1666L198.292 46.0416L200.167 51.6666L202.042 46.0416L207.667 44.1666L202.042 42.2916L200.167 36.6666Z" fill="#F5BC00"/>
<path d="M187.667 25H192.667C194.508 25 196 26.4917 196 28.3333V33.3333C196 35.175 194.508 36.6667 192.667 36.6667H187.667V25Z" fill="url(#paint5_linear_5432_45929)"/>
<path d="M154.333 36.6667H149.333C147.492 36.6667 146 35.175 146 33.3333V28.3333C146 26.4917 147.492 25 149.333 25H154.333V36.6667Z" fill="url(#paint6_linear_5432_45929)"/>
<path d="M191 28.3333H187.667V25C186.89 16.5133 179.722 9.99996 171 9.99996C162.278 9.99996 155.11 16.5133 154.327 25.15L154.333 28.3333H151V25C151.945 14.4833 160.542 6.66663 171 6.66663C181.458 6.66663 190.055 14.4833 190.993 24.85L191 28.3333Z" fill="url(#paint7_linear_5432_45929)"/>
<path d="M191 25H187.667V36.6667H191V25Z" fill="#00B3D7"/>
<path d="M151 36.6666H154.333V25H151V36.6666Z" fill="#00B3D7"/>
<path d="M68.6624 119.273H73.1056V136.659C73.0975 138.253 72.7594 139.625 72.0914 140.776C71.4233 141.919 70.4896 142.801 69.2902 143.42C68.0989 144.032 66.7104 144.338 65.1247 144.338C63.6759 144.338 62.3719 144.08 61.2128 143.565C60.0618 143.042 59.1482 142.269 58.472 141.247C57.7959 140.225 57.4578 138.953 57.4578 137.432H61.9131C61.9211 138.1 62.066 138.675 62.3477 139.158C62.6375 139.641 63.036 140.012 63.5431 140.269C64.0502 140.527 64.6337 140.656 65.2938 140.656C66.0102 140.656 66.6179 140.507 67.1169 140.209C67.616 139.903 67.9943 139.452 68.2519 138.857C68.5175 138.261 68.6543 137.528 68.6624 136.659V119.273ZM89.8424 136.2V125.455H94.2132V144H89.9752V140.704H89.782C89.3635 141.742 88.6753 142.591 87.7174 143.251C86.7676 143.911 85.5964 144.241 84.2039 144.241C82.9885 144.241 81.9139 143.972 80.9802 143.433C80.0545 142.885 79.3301 142.092 78.8069 141.054C78.2837 140.008 78.0221 138.744 78.0221 137.263V125.455H82.3928V136.587C82.3928 137.762 82.7148 138.696 83.3588 139.388C84.0027 140.08 84.8479 140.426 85.8943 140.426C86.5382 140.426 87.162 140.269 87.7657 139.955C88.3694 139.641 88.8644 139.174 89.2508 138.555C89.6452 137.927 89.8424 137.142 89.8424 136.2ZM98.9577 144V125.455H103.135V128.606H103.353C103.739 127.543 104.379 126.714 105.272 126.119C106.166 125.515 107.232 125.213 108.472 125.213C109.728 125.213 110.786 125.519 111.647 126.131C112.517 126.734 113.128 127.559 113.483 128.606H113.676C114.086 127.576 114.778 126.754 115.752 126.143C116.734 125.523 117.898 125.213 119.242 125.213C120.948 125.213 122.341 125.752 123.419 126.831C124.498 127.91 125.037 129.483 125.037 131.552V144H120.654V132.228C120.654 131.077 120.349 130.236 119.737 129.705C119.125 129.165 118.376 128.896 117.491 128.896C116.437 128.896 115.612 129.226 115.016 129.886C114.428 130.538 114.135 131.387 114.135 132.433V144H109.848V132.047C109.848 131.089 109.559 130.324 108.979 129.753C108.407 129.181 107.659 128.896 106.733 128.896C106.105 128.896 105.534 129.057 105.019 129.379C104.504 129.692 104.093 130.139 103.787 130.719C103.481 131.29 103.328 131.958 103.328 132.723V144H98.9577ZM129.721 150.955V125.455H134.02V128.521H134.273C134.499 128.071 134.816 127.592 135.227 127.085C135.638 126.569 136.193 126.131 136.893 125.768C137.593 125.398 138.487 125.213 139.574 125.213C141.006 125.213 142.298 125.579 143.449 126.312C144.608 127.036 145.526 128.111 146.202 129.536C146.886 130.952 147.228 132.691 147.228 134.751C147.228 136.788 146.894 138.518 146.226 139.943C145.558 141.368 144.649 142.455 143.498 143.203C142.347 143.952 141.043 144.326 139.586 144.326C138.523 144.326 137.642 144.149 136.941 143.795C136.241 143.441 135.678 143.014 135.251 142.515C134.833 142.008 134.507 141.529 134.273 141.078H134.092V150.955H129.721ZM134.008 134.727C134.008 135.927 134.177 136.977 134.515 137.879C134.861 138.78 135.356 139.484 136 139.991C136.652 140.491 137.441 140.74 138.366 140.74C139.332 140.74 140.141 140.482 140.793 139.967C141.445 139.444 141.936 138.732 142.266 137.83C142.604 136.921 142.773 135.886 142.773 134.727C142.773 133.576 142.608 132.554 142.278 131.661C141.948 130.767 141.457 130.067 140.805 129.56C140.153 129.053 139.34 128.799 138.366 128.799C137.432 128.799 136.64 129.045 135.988 129.536C135.336 130.027 134.841 130.715 134.503 131.6C134.173 132.486 134.008 133.528 134.008 134.727ZM159.905 144V125.455H164.143V128.545H164.336C164.674 127.475 165.254 126.65 166.075 126.07C166.904 125.483 167.85 125.189 168.912 125.189C169.153 125.189 169.423 125.201 169.721 125.225C170.027 125.241 170.28 125.269 170.482 125.31V129.33C170.296 129.266 170.003 129.21 169.6 129.161C169.206 129.105 168.823 129.077 168.453 129.077C167.656 129.077 166.94 129.25 166.304 129.596C165.676 129.934 165.181 130.405 164.819 131.009C164.457 131.612 164.276 132.308 164.276 133.097V144H159.905ZM173.635 144V125.455H178.006V144H173.635ZM175.833 122.822C175.141 122.822 174.545 122.593 174.046 122.134C173.547 121.667 173.297 121.108 173.297 120.456C173.297 119.796 173.547 119.237 174.046 118.778C174.545 118.311 175.141 118.077 175.833 118.077C176.533 118.077 177.129 118.311 177.62 118.778C178.119 119.237 178.368 119.796 178.368 120.456C178.368 121.108 178.119 121.667 177.62 122.134C177.129 122.593 176.533 122.822 175.833 122.822ZM190.816 151.341C189.246 151.341 187.898 151.128 186.771 150.701C185.644 150.282 184.739 149.719 184.055 149.011C183.37 148.302 182.896 147.518 182.63 146.656L186.566 145.702C186.743 146.065 187.001 146.423 187.339 146.777C187.677 147.139 188.132 147.437 188.703 147.67C189.283 147.912 190.011 148.033 190.888 148.033C192.128 148.033 193.154 147.731 193.967 147.127C194.78 146.531 195.187 145.549 195.187 144.181V140.668H194.969C194.744 141.118 194.414 141.581 193.979 142.056C193.553 142.531 192.985 142.929 192.277 143.251C191.577 143.573 190.695 143.734 189.633 143.734C188.208 143.734 186.916 143.4 185.757 142.732C184.606 142.056 183.688 141.05 183.004 139.714C182.328 138.37 181.99 136.687 181.99 134.667C181.99 132.63 182.328 130.912 183.004 129.511C183.688 128.103 184.61 127.036 185.769 126.312C186.928 125.579 188.22 125.213 189.645 125.213C190.731 125.213 191.625 125.398 192.325 125.768C193.034 126.131 193.597 126.569 194.016 127.085C194.434 127.592 194.752 128.071 194.969 128.521H195.211V125.455H199.521V144.302C199.521 145.888 199.143 147.2 198.386 148.238C197.63 149.276 196.595 150.053 195.283 150.568C193.971 151.083 192.482 151.341 190.816 151.341ZM190.852 140.305C191.778 140.305 192.567 140.08 193.219 139.629C193.871 139.179 194.366 138.531 194.704 137.685C195.042 136.84 195.211 135.826 195.211 134.643C195.211 133.476 195.042 132.453 194.704 131.576C194.374 130.699 193.883 130.018 193.231 129.536C192.587 129.045 191.794 128.799 190.852 128.799C189.878 128.799 189.065 129.053 188.413 129.56C187.761 130.067 187.27 130.763 186.94 131.648C186.61 132.526 186.445 133.524 186.445 134.643C186.445 135.778 186.61 136.772 186.94 137.625C187.278 138.47 187.773 139.13 188.425 139.605C189.085 140.072 189.894 140.305 190.852 140.305ZM208.621 133.134V144H204.251V119.273H208.525V128.606H208.742C209.177 127.559 209.849 126.734 210.758 126.131C211.676 125.519 212.843 125.213 214.26 125.213C215.548 125.213 216.671 125.483 217.628 126.022C218.586 126.561 219.327 127.35 219.85 128.388C220.381 129.427 220.647 130.695 220.647 132.192V144H216.276V132.868C216.276 131.62 215.954 130.65 215.31 129.958C214.674 129.258 213.781 128.908 212.63 128.908C211.857 128.908 211.165 129.077 210.553 129.415C209.949 129.745 209.475 130.224 209.128 130.852C208.79 131.479 208.621 132.24 208.621 133.134ZM234.613 125.455V128.835H223.952V125.455H234.613ZM226.584 121.011H230.954V138.422C230.954 139.009 231.043 139.46 231.22 139.774C231.405 140.08 231.647 140.289 231.945 140.402C232.242 140.515 232.572 140.571 232.935 140.571C233.208 140.571 233.458 140.551 233.683 140.511C233.917 140.47 234.094 140.434 234.214 140.402L234.951 143.819C234.717 143.899 234.383 143.988 233.949 144.085C233.522 144.181 232.999 144.237 232.379 144.254C231.284 144.286 230.298 144.121 229.421 143.759C228.544 143.388 227.847 142.817 227.332 142.044C226.825 141.271 226.576 140.305 226.584 139.146V121.011ZM247.202 144V125.455H251.573V144H247.202ZM249.399 122.822C248.707 122.822 248.111 122.593 247.612 122.134C247.113 121.667 246.864 121.108 246.864 120.456C246.864 119.796 247.113 119.237 247.612 118.778C248.111 118.311 248.707 118.077 249.399 118.077C250.1 118.077 250.695 118.311 251.186 118.778C251.685 119.237 251.935 119.796 251.935 120.456C251.935 121.108 251.685 121.667 251.186 122.134C250.695 122.593 250.1 122.822 249.399 122.822ZM260.688 133.134V144H256.317V125.455H260.495V128.606H260.712C261.139 127.567 261.819 126.742 262.752 126.131C263.694 125.519 264.857 125.213 266.242 125.213C267.522 125.213 268.636 125.487 269.586 126.034C270.544 126.581 271.285 127.374 271.808 128.413C272.339 129.451 272.601 130.711 272.593 132.192V144H268.222V132.868C268.222 131.628 267.9 130.658 267.256 129.958C266.62 129.258 265.739 128.908 264.612 128.908C263.847 128.908 263.167 129.077 262.571 129.415C261.984 129.745 261.521 130.224 261.183 130.852C260.853 131.479 260.688 132.24 260.688 133.134ZM282.634 119.273L282.236 136.732H278.348L277.962 119.273H282.634ZM280.292 144.266C279.56 144.266 278.932 144.008 278.409 143.493C277.893 142.978 277.636 142.35 277.636 141.609C277.636 140.885 277.893 140.265 278.409 139.75C278.932 139.235 279.56 138.977 280.292 138.977C281.009 138.977 281.628 139.235 282.152 139.75C282.683 140.265 282.948 140.885 282.948 141.609C282.948 142.1 282.824 142.547 282.574 142.95C282.333 143.352 282.011 143.674 281.608 143.915C281.214 144.149 280.775 144.266 280.292 144.266Z" fill="#F5F9FF" fill-opacity="0.95"/>
<defs>
<linearGradient id="paint0_linear_5432_45929" x1="141.831" y1="47.216" x2="149.015" y2="80.7967" gradientUnits="userSpaceOnUse">
<stop stop-color="#2AA4F4"/>
<stop offset="1" stop-color="#007AD9"/>
</linearGradient>
<linearGradient id="paint1_linear_5432_45929" x1="165.599" y1="51.6784" x2="188.495" y2="51.6784" gradientUnits="userSpaceOnUse">
<stop stop-color="#1A3051"/>
<stop offset="1" stop-color="#173D7A"/>
</linearGradient>
<linearGradient id="paint2_linear_5432_45929" x1="154.827" y1="21.4395" x2="162.658" y2="21.4395" gradientUnits="userSpaceOnUse">
<stop stop-color="#1A3051"/>
<stop offset="1" stop-color="#173D7A"/>
</linearGradient>
<linearGradient id="paint3_linear_5432_45929" x1="183.478" y1="21.4395" x2="191.309" y2="21.4395" gradientUnits="userSpaceOnUse">
<stop stop-color="#1A3051"/>
<stop offset="1" stop-color="#173D7A"/>
</linearGradient>
<linearGradient id="paint4_linear_5432_45929" x1="162.006" y1="14.1681" x2="200.132" y2="14.1681" gradientUnits="userSpaceOnUse">
<stop stop-color="#1A3051"/>
<stop offset="1" stop-color="#173D7A"/>
</linearGradient>
<linearGradient id="paint5_linear_5432_45929" x1="187.995" y1="25.2564" x2="195.887" y2="35.657" gradientUnits="userSpaceOnUse">
<stop stop-color="#2AA4F4"/>
<stop offset="1" stop-color="#007AD9"/>
</linearGradient>
<linearGradient id="paint6_linear_5432_45929" x1="146.329" y1="25.2564" x2="154.22" y2="35.657" gradientUnits="userSpaceOnUse">
<stop stop-color="#2AA4F4"/>
<stop offset="1" stop-color="#007AD9"/>
</linearGradient>
<linearGradient id="paint7_linear_5432_45929" x1="152.577" y1="7.14275" x2="160.803" y2="35.1632" gradientUnits="userSpaceOnUse">
<stop stop-color="#2AA4F4"/>
<stop offset="1" stop-color="#007AD9"/>
</linearGradient>
</defs>
</svg>
